<?xml version="1.0" standalone="yes"?><svg style="${styles}" class="jerseySVG ${className}" xmlns="http://www.w3.org/2000/svg" viewBox="0 0 91.6 91.7"><path  d="M55.8 5.3c-.5 0-1.4-.7-2.2-.8-1.6-.3-3 .2-4.5.2-1.7 0-2.5.2-2.7.3-.2.1-.5.2-.9.2-.8 0-2.1-.3-3.1-.6-.6-.2-1.2-.3-1.5-.3-.7-.1-2.3.4-3.3.6-.6.2-1 .3-1.2.3h-.1c-.8 0-1.3-.8-1.4-1l-.3-.2 1.2-2.5.1-.1C38 .2 42.9 0 45.7 0h.6c1.7 0 7.4.1 9.8 1.4l.1.1 1.1 2.4c.1.1.2.4 0 .8-.3.5-1 .6-1.5.6z"></path><path fill="${jerseyFillColor}" d="M76.3 12.4c-2.5-4.5-6.5-5-10.2-5.5-3.8-.5-11.5-2.6-12-2.8-3.1-1-5.6.2-8.2.2-2.7 0-5.2-1.2-8.2-.2-.5.2-8.3 2.2-12 2.8-3.8.5-7.7 1-10.2 5.5-2.7 4.5-14.4 24.4-14.4 24.4l15.5 7.8 6.1-8.5s1.6 13.7 1.6 20.7-1.9 24.3-.8 30.7c0 0 1.1 3.1 21.3 3.1H47c20.2 0 21.2-3.1 21.2-3.1 1.1-6.4-.6-23.5-.6-30.6s1.5-20.8 1.5-20.8l6 8.4 15.4-7.8c0 .1-11.7-19.8-14.2-24.3z"></path><path fill="#FFF" d="M47 85.4h-2.2c-19.6 0-21.6-2.9-21.8-3.4l1-.4c.1.1 1.9 2.8 20.8 2.8H47c18.8 0 20.6-2.6 20.7-2.7l1 .4c-.2.4-2.1 3.3-21.7 3.3z" opacity=".4"></path><path opacity=".5" fill="none" stroke="#FFF" stroke-width="1.578" stroke-linecap="round" stroke-linejoin="round" stroke-miterlimit="10" d="M68.8 36.2s1.7-16.5 4-18.8M23 36.1s-1.7-16.5-4-18.8"></path><path fill="none" stroke="#000" stroke-width="2.158" stroke-linejoin="round" stroke-miterlimit="10" d="M76.3 12.4c-2.5-4.5-6.5-5-10.2-5.5-3.8-.5-11.5-2.6-12-2.8-3.1-1-5.6.2-8.2.2-2.7 0-5.2-1.2-8.2-.2-.5.2-8.3 2.2-12 2.8-3.8.5-7.7 1-10.2 5.5-2.7 4.5-14.4 24.4-14.4 24.4l15.5 7.8 6.1-8.5s1.6 13.7 1.6 20.7-1.9 24.3-.8 30.7c0 0 1.1 3.1 21.3 3.1H47c20.2 0 21.2-3.1 21.2-3.1 1.1-6.4-.6-23.5-.6-30.6s1.5-20.8 1.5-20.8l6 8.4 15.4-7.8c0 .1-11.7-19.8-14.2-24.3z"></path></svg>